<mxfile host="app.diagrams.net" modified="2024-06-01T11:43:28.859Z" agent="Mozilla/5.0 (X11; Ubuntu; Linux x86_64; rv:126.0) Gecko/20100101 Firefox/126.0" version="24.4.0" etag="KeM28r0MlsUo5Zlrou7u" type="github">
  <diagram name="Page-1" id="sTOd59y1kINPp5zqmkih">
    <mxGraphModel>
      <root>
        <mxCell id="0" />
        <mxCell id="1" parent="0" />
      </root>
    </mxGraphModel>
  </diagram>
</mxfile>
